<?xml version="1.0" encoding="UTF-8" standalone="no"?>
<!DOCTYPE svg PUBLIC "-//W3C//DTD SVG 1.1//EN"
 "http://www.w3.org/Graphics/SVG/1.1/DTD/svg11.dtd">
<!-- Generated by graphviz version 2.26.3 (20100126.1600)
 -->
<!-- Title: i Pages: 1 -->
<svg width="298pt" height="1158pt"
 viewBox="0.00 0.00 298.00 1158.00" xmlns="http://www.w3.org/2000/svg" xmlns:xlink="http://www.w3.org/1999/xlink">
<g id="graph1" class="graph" transform="scale(1 1) rotate(0) translate(4 1154)">
<title>i</title>
<polygon fill="white" stroke="white" points="-4,5 -4,-1154 295,-1154 295,5 -4,5"/>
<!-- Tab -->
<g id="node1" class="node"><title>Tab</title>
<polygon fill="none" stroke="black" points="9,-1110 9,-1146 243,-1146 243,-1110 9,-1110"/>
<text text-anchor="start" x="94" y="-1134.23" font-family="Times Roman,serif" font-size="14.00">[vsyscall]</text>
<text text-anchor="start" x="112" y="-1117.43" font-family="Times Roman,serif" font-size="14.00">r&#45;xp</text>
<text text-anchor="start" x="244" y="-1142.07" font-family="Times Roman,serif" font-size="4.00">0xffffffffff601000</text>
<text text-anchor="start" x="244" y="-1112.07" font-family="Times Roman,serif" font-size="4.00">0xffffffffff600000</text>
<polygon fill="none" stroke="black" points="9,-998 9,-1110 243,-1110 243,-998 9,-998"/>
<text text-anchor="start" x="100.5" y="-1060.23" font-family="Times Roman,serif" font-size="14.00">unused</text>
<text text-anchor="start" x="115" y="-1043.43" font-family="Times Roman,serif" font-size="14.00">&#45;&#45;&#45;&#45;</text>
<text text-anchor="start" x="244" y="-1106.07" font-family="Times Roman,serif" font-size="4.00">0xffffffffff600000</text>
<text text-anchor="start" x="244" y="-1000.07" font-family="Times Roman,serif" font-size="4.00">0x7ffff9e0000</text>
<polygon fill="none" stroke="black" points="9,-963 9,-998 243,-998 243,-963 9,-963"/>
<text text-anchor="start" x="104.5" y="-986.733" font-family="Times Roman,serif" font-size="14.00">[vdso]</text>
<text text-anchor="start" x="112" y="-969.933" font-family="Times Roman,serif" font-size="14.00">r&#45;xp</text>
<text text-anchor="start" x="244" y="-994.067" font-family="Times Roman,serif" font-size="4.00">0x7ffff9e00000</text>
<text text-anchor="start" x="244" y="-965.067" font-family="Times Roman,serif" font-size="4.00">0x7ffff9dfe000</text>
<polygon fill="none" stroke="black" points="9,-928 9,-963 243,-963 243,-928 9,-928"/>
<text text-anchor="start" x="100.5" y="-951.733" font-family="Times Roman,serif" font-size="14.00">unused</text>
<text text-anchor="start" x="115" y="-934.933" font-family="Times Roman,serif" font-size="14.00">&#45;&#45;&#45;&#45;</text>
<text text-anchor="start" x="244" y="-959.067" font-family="Times Roman,serif" font-size="4.00">0x7ffff9dfe00</text>
<text text-anchor="start" x="244" y="-930.067" font-family="Times Roman,serif" font-size="4.00">0x7ffff9d5800</text>
<polygon fill="none" stroke="black" points="9,-883 9,-928 243,-928 243,-883 9,-883"/>
<text text-anchor="start" x="102.5" y="-911.733" font-family="Times Roman,serif" font-size="14.00">[stack]</text>
<text text-anchor="start" x="109.5" y="-894.933" font-family="Times Roman,serif" font-size="14.00">rw&#45;p</text>
<text text-anchor="start" x="244" y="-924.067" font-family="Times Roman,serif" font-size="4.00">0x7ffff9d58000</text>
<text text-anchor="start" x="244" y="-885.067" font-family="Times Roman,serif" font-size="4.00">0x7ffff9d37000</text>
<polygon fill="none" stroke="black" points="9,-771 9,-883 243,-883 243,-771 9,-771"/>
<text text-anchor="start" x="100.5" y="-833.233" font-family="Times Roman,serif" font-size="14.00">unused</text>
<text text-anchor="start" x="115" y="-816.433" font-family="Times Roman,serif" font-size="14.00">&#45;&#45;&#45;&#45;</text>
<text text-anchor="start" x="244" y="-879.067" font-family="Times Roman,serif" font-size="4.00">0x7ffff9d3700</text>
<text text-anchor="start" x="244" y="-773.067" font-family="Times Roman,serif" font-size="4.00">0x7f787cfe900</text>
<polygon fill="none" stroke="black" points="9,-736 9,-771 243,-771 243,-736 9,-736"/>
<text text-anchor="start" x="16" y="-759.733" font-family="Times Roman,serif" font-size="14.00">/lib/x86_64&#45;linux&#45;gnu/ld&#45;2.15.so</text>
<text text-anchor="start" x="109.5" y="-742.933" font-family="Times Roman,serif" font-size="14.00">rw&#45;p</text>
<text text-anchor="start" x="244" y="-767.067" font-family="Times Roman,serif" font-size="4.00">0x7f787cfe9000</text>
<text text-anchor="start" x="244" y="-738.067" font-family="Times Roman,serif" font-size="4.00">0x7f787cfe7000</text>
<polygon fill="none" stroke="black" points="9,-701 9,-736 243,-736 243,-701 9,-701"/>
<text text-anchor="start" x="16" y="-724.733" font-family="Times Roman,serif" font-size="14.00">/lib/x86_64&#45;linux&#45;gnu/ld&#45;2.15.so</text>
<text text-anchor="start" x="113.5" y="-707.933" font-family="Times Roman,serif" font-size="14.00">r&#45;&#45;p</text>
<text text-anchor="start" x="244" y="-732.067" font-family="Times Roman,serif" font-size="4.00">0x7f787cfe7000</text>
<text text-anchor="start" x="244" y="-703.067" font-family="Times Roman,serif" font-size="4.00">0x7f787cfe6000</text>
<polygon fill="none" stroke="black" points="9,-683 9,-701 243,-701 243,-683 9,-683"/>
<text text-anchor="start" x="109.5" y="-689.733" font-family="Times Roman,serif" font-size="14.00">rw&#45;p</text>
<text text-anchor="start" x="244" y="-697.067" font-family="Times Roman,serif" font-size="4.00">0x7f787cfe6000</text>
<text text-anchor="start" x="244" y="-685.067" font-family="Times Roman,serif" font-size="4.00">0x7f787cfe4000</text>
<polygon fill="none" stroke="black" points="9,-648 9,-683 243,-683 243,-648 9,-648"/>
<text text-anchor="start" x="100.5" y="-671.733" font-family="Times Roman,serif" font-size="14.00">unused</text>
<text text-anchor="start" x="115" y="-654.933" font-family="Times Roman,serif" font-size="14.00">&#45;&#45;&#45;&#45;</text>
<text text-anchor="start" x="244" y="-679.067" font-family="Times Roman,serif" font-size="4.00">0x7f787cfe400</text>
<text text-anchor="start" x="244" y="-650.067" font-family="Times Roman,serif" font-size="4.00">0x7f787cfc200</text>
<polygon fill="none" stroke="black" points="9,-630 9,-648 243,-648 243,-630 9,-630"/>
<text text-anchor="start" x="109.5" y="-636.733" font-family="Times Roman,serif" font-size="14.00">rw&#45;p</text>
<text text-anchor="start" x="244" y="-644.067" font-family="Times Roman,serif" font-size="4.00">0x7f787cfc2000</text>
<text text-anchor="start" x="244" y="-632.067" font-family="Times Roman,serif" font-size="4.00">0x7f787cfbf000</text>
<polygon fill="none" stroke="black" points="9,-589 9,-630 243,-630 243,-589 9,-589"/>
<text text-anchor="start" x="100.5" y="-615.733" font-family="Times Roman,serif" font-size="14.00">unused</text>
<text text-anchor="start" x="115" y="-598.933" font-family="Times Roman,serif" font-size="14.00">&#45;&#45;&#45;&#45;</text>
<text text-anchor="start" x="244" y="-626.067" font-family="Times Roman,serif" font-size="4.00">0x7f787cfbf00</text>
<text text-anchor="start" x="244" y="-591.067" font-family="Times Roman,serif" font-size="4.00">0x7f787cde600</text>
<polygon fill="none" stroke="black" points="9,-543 9,-589 243,-589 243,-543 9,-543"/>
<text text-anchor="start" x="16" y="-572.233" font-family="Times Roman,serif" font-size="14.00">/lib/x86_64&#45;linux&#45;gnu/ld&#45;2.15.so</text>
<text text-anchor="start" x="112" y="-555.433" font-family="Times Roman,serif" font-size="14.00">r&#45;xp</text>
<text text-anchor="start" x="244" y="-585.067" font-family="Times Roman,serif" font-size="4.00">0x7f787cde6000</text>
<text text-anchor="start" x="244" y="-545.067" font-family="Times Roman,serif" font-size="4.00">0x7f787cdc4000</text>
<polygon fill="none" stroke="black" points="9,-525 9,-543 243,-543 243,-525 9,-525"/>
<text text-anchor="start" x="109.5" y="-531.733" font-family="Times Roman,serif" font-size="14.00">rw&#45;p</text>
<text text-anchor="start" x="244" y="-539.067" font-family="Times Roman,serif" font-size="4.00">0x7f787cdc4000</text>
<text text-anchor="start" x="244" y="-527.067" font-family="Times Roman,serif" font-size="4.00">0x7f787cdbf000</text>
<polygon fill="none" stroke="black" points="9,-490 9,-525 243,-525 243,-490 9,-490"/>
<text text-anchor="start" x="10.5" y="-513.733" font-family="Times Roman,serif" font-size="14.00">/lib/x86_64&#45;linux&#45;gnu/libc&#45;2.15.so</text>
<text text-anchor="start" x="109.5" y="-496.933" font-family="Times Roman,serif" font-size="14.00">rw&#45;p</text>
<text text-anchor="start" x="244" y="-521.067" font-family="Times Roman,serif" font-size="4.00">0x7f787cdbf000</text>
<text text-anchor="start" x="244" y="-492.067" font-family="Times Roman,serif" font-size="4.00">0x7f787cdbd000</text>
<polygon fill="none" stroke="black" points="9,-455 9,-490 243,-490 243,-455 9,-455"/>
<text text-anchor="start" x="10.5" y="-478.733" font-family="Times Roman,serif" font-size="14.00">/lib/x86_64&#45;linux&#45;gnu/libc&#45;2.15.so</text>
<text text-anchor="start" x="113.5" y="-461.933" font-family="Times Roman,serif" font-size="14.00">r&#45;&#45;p</text>
<text text-anchor="start" x="244" y="-486.067" font-family="Times Roman,serif" font-size="4.00">0x7f787cdbd000</text>
<text text-anchor="start" x="244" y="-457.067" font-family="Times Roman,serif" font-size="4.00">0x7f787cdb9000</text>
<polygon fill="none" stroke="black" points="9,-343 9,-455 243,-455 243,-343 9,-343"/>
<text text-anchor="start" x="10.5" y="-405.233" font-family="Times Roman,serif" font-size="14.00">/lib/x86_64&#45;linux&#45;gnu/libc&#45;2.15.so</text>
<text text-anchor="start" x="113.5" y="-388.433" font-family="Times Roman,serif" font-size="14.00">&#45;&#45;&#45;p</text>
<text text-anchor="start" x="244" y="-451.067" font-family="Times Roman,serif" font-size="4.00">0x7f787cdb9000</text>
<text text-anchor="start" x="244" y="-345.067" font-family="Times Roman,serif" font-size="4.00">0x7f787cbb9000</text>
<polygon fill="none" stroke="black" points="9,-231 9,-343 243,-343 243,-231 9,-231"/>
<text text-anchor="start" x="10.5" y="-293.233" font-family="Times Roman,serif" font-size="14.00">/lib/x86_64&#45;linux&#45;gnu/libc&#45;2.15.so</text>
<text text-anchor="start" x="112" y="-276.433" font-family="Times Roman,serif" font-size="14.00">r&#45;xp</text>
<text text-anchor="start" x="244" y="-339.067" font-family="Times Roman,serif" font-size="4.00">0x7f787cbb9000</text>
<text text-anchor="start" x="244" y="-233.067" font-family="Times Roman,serif" font-size="4.00">0x7f787ca04000</text>
<polygon fill="none" stroke="black" points="9,-119 9,-231 243,-231 243,-119 9,-119"/>
<text text-anchor="start" x="31" y="-181.233" font-family="Times Roman,serif" font-size="14.00">/usr/lib/locale/locale&#45;archive</text>
<text text-anchor="start" x="113.5" y="-164.433" font-family="Times Roman,serif" font-size="14.00">r&#45;&#45;p</text>
<text text-anchor="start" x="244" y="-227.067" font-family="Times Roman,serif" font-size="4.00">0x7f787ca04000</text>
<text text-anchor="start" x="244" y="-121.067" font-family="Times Roman,serif" font-size="4.00">0x7f787c321000</text>
<polygon fill="none" stroke="black" points="9,-74 9,-119 243,-119 243,-74 9,-74"/>
<text text-anchor="start" x="103.5" y="-102.733" font-family="Times Roman,serif" font-size="14.00">[heap]</text>
<text text-anchor="start" x="109.5" y="-85.9333" font-family="Times Roman,serif" font-size="14.00">rw&#45;p</text>
<text text-anchor="start" x="244" y="-115.067" font-family="Times Roman,serif" font-size="4.00">0x1df6000</text>
<text text-anchor="start" x="244" y="-76.0667" font-family="Times Roman,serif" font-size="4.00">0x1dd5000</text>
<polygon fill="none" stroke="black" points="9,-39 9,-74 243,-74 243,-39 9,-39"/>
<text text-anchor="start" x="21.5" y="-62.7333" font-family="Times Roman,serif" font-size="14.00">/home/dada/coreutils/bin/sleep</text>
<text text-anchor="start" x="109.5" y="-45.9333" font-family="Times Roman,serif" font-size="14.00">rw&#45;p</text>
<text text-anchor="start" x="244" y="-70.0667" font-family="Times Roman,serif" font-size="4.00">0x607000</text>
<text text-anchor="start" x="244" y="-41.0667" font-family="Times Roman,serif" font-size="4.00">0x606000</text>
<polygon fill="none" stroke="black" points="9,-4 9,-39 243,-39 243,-4 9,-4"/>
<text text-anchor="start" x="21.5" y="-27.7333" font-family="Times Roman,serif" font-size="14.00">/home/dada/coreutils/bin/sleep</text>
<text text-anchor="start" x="112" y="-10.9333" font-family="Times Roman,serif" font-size="14.00">r&#45;xp</text>
<text text-anchor="start" x="244" y="-35.0667" font-family="Times Roman,serif" font-size="4.00">0x406000</text>
<text text-anchor="start" x="244" y="-6.06667" font-family="Times Roman,serif" font-size="4.00">0x400000</text>
</g>
</g>
</svg>
